<?xml version="1.0" standalone="no"?>
<!DOCTYPE svg PUBLIC "-//W3C//DTD SVG 20010904//EN"
 "http://www.w3.org/TR/2001/REC-SVG-20010904/DTD/svg10.dtd">
<svg version="1.0" xmlns="http://www.w3.org/2000/svg"
 width="200.000000pt" height="200.000000pt" viewBox="0 0 200.000000 200.000000"
 preserveAspectRatio="xMidYMid meet">

<g transform="translate(0.000000,200.000000) scale(0.100000,-0.100000)"
fill="#000000" stroke="none">
<path d="M199 1533 c-56 -142 -59 -155 -59 -238 l0 -85 55 0 55 0 0 40 0 40
45 0 45 0 0 -40 0 -40 55 0 55 0 -1 83 c0 67 -6 98 -33 172 l-33 90 -87 3
c-86 3 -86 3 -97 -25z m109 -80 c5 -10 12 -30 16 -45 6 -27 5 -28 -29 -28 -38
0 -42 8 -24 59 12 35 24 39 37 14z"/>
<path d="M510 1385 l0 -175 55 0 55 0 0 56 0 55 43 -3 42 -3 3 -52 3 -53 55 0
54 0 0 75 c0 68 -3 78 -24 98 -18 17 -22 27 -15 38 18 29 10 89 -16 114 -23
24 -30 25 -140 25 l-115 0 0 -175z m168 58 c-2 -22 -9 -29 -30 -31 -25 -3 -28
0 -28 27 0 28 3 31 31 31 27 0 30 -3 27 -27z"/>
<path d="M925 1523 c-42 -99 -55 -155 -55 -233 l0 -80 55 0 55 0 0 40 0 40 45
0 45 0 0 -40 0 -40 56 0 56 0 -5 98 c-4 77 -11 112 -35 172 l-30 75 -86 3 -85
3 -16 -38z m121 -88 c20 -49 18 -55 -21 -55 -38 0 -42 8 -24 59 14 40 27 39
45 -4z"/>
<path d="M1240 1385 l0 -175 130 0 c161 0 170 5 170 105 0 58 -3 66 -26 81
-17 12 -22 20 -15 27 6 6 11 30 11 53 0 34 -5 47 -26 63 -23 18 -41 21 -135
21 l-109 0 0 -175z m165 65 c0 -20 -6 -26 -27 -28 -25 -3 -28 0 -28 28 0 28 3
31 28 28 21 -2 27 -8 27 -28z m25 -130 c0 -28 -2 -30 -40 -30 -38 0 -40 2 -40
30 0 28 2 30 40 30 38 0 40 -2 40 -30z"/>
<path d="M1634 1548 c-29 -14 -44 -50 -44 -107 0 -68 20 -89 98 -102 40 -7 62
-16 62 -25 0 -10 -21 -14 -77 -16 l-78 -3 -3 -42 -3 -43 115 0 c102 0 118 2
136 20 25 25 34 61 27 112 -7 55 -32 77 -94 85 -103 12 -97 43 8 43 l69 0 0
45 0 45 -97 -1 c-54 0 -108 -5 -119 -11z"/>
<path d="M220 1091 c0 -25 -50 -37 -79 -19 -33 20 -43 0 -28 -52 10 -34 18
-45 32 -45 11 0 20 7 20 15 0 19 67 39 73 22 2 -7 12 -12 23 -12 22 0 24 17 8
73 -7 26 -15 37 -29 37 -13 0 -20 -7 -20 -19z"/>
<path d="M1740 1101 c0 -5 -3 -16 -6 -24 -3 -10 4 -17 23 -22 l28 -7 -37 -19
c-60 -31 -51 -52 34 -77 77 -22 88 -21 88 8 0 13 -9 22 -27 26 -16 4 -32 9
-37 12 -13 7 22 20 55 21 27 1 47 27 32 42 -7 6 -137 49 -149 49 -2 0 -4 -4
-4 -9z"/>
<path d="M952 974 c-41 -69 -71 -128 -68 -131 3 -3 29 -1 58 5 29 5 55 8 58 6
4 -4 -25 -128 -37 -161 -3 -7 -1 -13 3 -13 11 0 164 253 164 270 0 7 -6 10
-14 7 -7 -3 -34 -9 -60 -12 -53 -8 -53 -9 -31 80 26 110 17 103 -73 -51z"/>
<path d="M222 930 c-56 -36 -62 -42 -52 -60 13 -24 19 -24 44 -5 11 8 24 15
29 15 12 0 -3 -43 -21 -56 -12 -9 -12 -15 -3 -33 l12 -22 32 21 c18 11 49 30
70 42 41 24 44 30 21 49 -12 10 -20 10 -35 1 -21 -14 -24 -5 -9 34 7 19 7 30
-1 40 -16 19 -16 19 -87 -26z"/>
<path d="M1654 901 c-22 -34 -24 -44 -14 -56 9 -11 16 -12 26 -4 19 16 74 -18
71 -45 -4 -37 28 -29 57 15 26 38 27 43 12 58 -14 13 -18 14 -25 2 -13 -21
-71 16 -68 43 4 38 -30 30 -59 -13z"/>
<path d="M1550 785 c-21 -23 -22 -28 -11 -65 7 -23 24 -54 39 -71 25 -27 29
-29 47 -16 17 13 17 17 6 31 -21 25 2 45 31 27 17 -11 23 -10 36 3 14 14 14
17 -4 37 -26 30 -94 79 -109 79 -6 0 -22 -11 -35 -25z m62 -57 c-13 -13 -32
-2 -32 18 0 12 4 13 21 3 14 -7 18 -14 11 -21z"/>
<path d="M385 729 c-25 -34 -45 -64 -45 -68 0 -3 22 -21 50 -40 54 -37 74 -36
91 6 7 15 19 42 27 60 15 29 15 34 0 50 -9 10 -30 26 -47 36 l-30 18 -46 -62z
m83 -18 c3 -8 -1 -12 -9 -9 -7 2 -15 10 -17 17 -3 8 1 12 9 9 7 -2 15 -10 17
-17z m-33 -41 c11 -17 -5 -32 -21 -19 -7 6 -11 15 -8 20 7 12 21 11 29 -1z"/>
<path d="M1441 711 c-12 -8 -13 -15 -4 -34 7 -14 9 -28 6 -31 -13 -12 -32 -5
-38 14 -7 22 -22 25 -45 10 -12 -7 -9 -20 20 -79 34 -71 43 -79 69 -62 10 6
11 13 2 29 -15 28 -14 39 4 46 10 4 20 -3 27 -19 12 -27 24 -30 48 -15 12 7 9
20 -20 79 -34 71 -42 79 -69 62z"/>
<path d="M560 674 c-6 -14 -20 -48 -31 -75 -12 -27 -20 -51 -18 -53 7 -5 108
-46 114 -46 3 0 13 16 21 36 13 30 13 38 2 45 -20 13 -38 10 -38 -6 0 -15 -21
-21 -32 -9 -4 3 4 29 17 58 l24 53 -25 12 c-22 10 -26 8 -34 -15z"/>
<path d="M1254 636 c-44 -19 -48 -31 -34 -84 19 -69 26 -75 84 -68 57 6 60 8
51 35 -5 17 -10 18 -36 9 -36 -12 -38 -11 -46 35 -5 33 -3 35 27 42 22 5 30
11 26 22 -3 8 -6 17 -6 19 0 8 -36 3 -66 -10z"/>
<path d="M722 618 c-6 -8 -17 -38 -23 -67 -14 -66 -2 -82 69 -89 49 -4 50 -4
60 29 22 69 24 105 8 118 -24 20 -99 26 -114 9z m65 -36 c20 -12 -3 -84 -25
-80 -17 4 -18 14 -7 66 6 23 12 26 32 14z"/>
<path d="M919 602 c-27 -8 -39 -36 -39 -89 0 -61 13 -73 79 -73 34 0 41 3 41
19 0 15 -8 21 -32 23 -30 3 -33 6 -33 38 0 32 3 35 33 38 23 2 32 8 32 22 0
13 -9 19 -34 22 -19 2 -40 2 -47 0z"/>
<path d="M1047 603 c-11 -3 -16 -11 -13 -26 3 -12 8 -48 11 -79 6 -53 9 -58
31 -58 21 0 24 5 24 35 0 45 28 49 37 5 4 -24 11 -30 31 -30 23 0 24 2 18 43
-4 23 -12 47 -20 52 -8 7 -10 19 -5 38 6 24 5 27 -16 27 -17 0 -26 -9 -35 -32
l-13 -33 -6 29 c-6 31 -15 36 -44 29z"/>
</g>
</svg>
